<svg width="300" height="95" viewBox="0 0 300 95" fill="none" xmlns="http://www.w3.org/2000/svg">
<path d="M42.496 7.52L64.384 92H49.28L44.16 70.496H19.072L14.08 92H0L23.424 7.52H42.496ZM21.376 61.024H41.984L31.616 17.12L21.376 61.024ZM87.415 15.328C87.415 24.6293 86.9883 31.456 86.135 35.808C87.7563 32.224 90.1883 29.408 93.431 27.36C96.6737 25.2267 100.258 24.16 104.183 24.16C112.29 24.16 118.178 27.4027 121.847 33.888C125.516 40.3733 127.351 48.5653 127.351 58.464C127.351 69.3867 125.004 78.176 120.311 84.832C115.618 91.488 108.407 94.816 98.679 94.816C94.4977 94.816 90.0603 94.2613 85.367 93.152C80.759 92.128 76.7483 90.6773 73.335 88.8V2.39999L87.415 0.863998V15.328ZM87.415 83.296C91.1697 85.856 95.1377 87.136 99.319 87.136C104.524 87.136 107.938 84.4907 109.559 79.2C111.18 73.9093 111.991 67.2107 111.991 59.104C111.991 51.8507 111.18 45.8773 109.559 41.184C108.023 36.4053 104.823 34.016 99.959 34.016C95.0097 34.016 91.6817 36.3627 89.975 41.056C88.2683 45.664 87.415 51.552 87.415 58.72V83.296ZM163.628 24.16C173.185 24.16 180.268 27.2747 184.876 33.504C189.484 39.648 191.788 47.968 191.788 58.464C191.788 69.6427 189.569 78.5173 185.132 85.088C180.695 91.5733 173.527 94.816 163.628 94.816C153.9 94.816 146.775 91.7013 142.252 85.472C137.815 79.2427 135.596 70.6667 135.596 59.744C135.596 49.1627 137.9 40.5867 142.508 34.016C147.116 27.4453 154.156 24.16 163.628 24.16ZM163.628 87.136C168.919 87.136 172.375 84.5333 173.996 79.328C175.617 74.1227 176.428 67.3813 176.428 59.104C176.428 51.5093 175.532 45.0667 173.74 39.776C172.033 34.4853 168.663 31.84 163.628 31.84C155.18 31.84 150.956 40.928 150.956 59.104C150.956 67.3813 151.724 74.1227 153.26 79.328C154.881 84.5333 158.337 87.136 163.628 87.136ZM255.011 81.504C255.011 85.6853 256.334 88.5013 258.979 89.952C258.296 91.232 257.272 92.2133 255.907 92.896C254.627 93.5787 253.134 93.92 251.427 93.92C248.952 93.92 246.904 93.2373 245.283 91.872C243.662 90.4213 242.68 88.5013 242.339 86.112C240.974 88.928 238.755 91.0613 235.683 92.512C232.696 94.048 229.454 94.816 225.955 94.816C219.811 94.816 215.118 93.4933 211.875 90.848C208.718 88.1173 206.627 84.448 205.603 79.84C204.579 75.1467 204.067 69.1307 204.067 61.792V26.72H218.147V61.152C218.147 66.3573 218.318 70.6667 218.659 74.08C219.086 77.408 220.152 80.2667 221.859 82.656C223.566 85.0453 226.168 86.24 229.667 86.24C233.422 86.24 236.238 84.832 238.115 82.016C239.992 79.1147 240.931 75.5307 240.931 71.264V26.72H255.011V81.504ZM264.64 32.48L264.512 28.64C268.352 27.104 271.979 25.056 275.392 22.496C278.891 19.936 281.835 17.12 284.224 14.048H288.192V26.72H299.968V32.48H287.936V79.072C287.936 81.632 288.405 83.552 289.344 84.832C290.283 86.112 291.776 86.9227 293.824 87.264C293.397 89.2267 292.245 90.8053 290.368 92C288.576 93.28 286.485 93.92 284.096 93.92C277.184 93.92 273.728 89.9947 273.728 82.144V32.48H264.64Z" fill="#EB5757"/>
</svg>
