<svg width="389" height="96" viewBox="0 0 389 96" fill="none" xmlns="http://www.w3.org/2000/svg">
<path d="M32.48 14.92C25.9947 14.92 21.6853 18.3333 19.552 25.16C17.504 31.9013 16.48 40.3493 16.48 50.504C16.48 60.6587 17.5893 68.808 19.808 74.952C22.0267 81.0107 26.6773 84.04 33.76 84.04C38.1973 84.04 41.9947 82.8027 45.152 80.328C48.3093 77.8533 50.5707 74.44 51.936 70.088C53.728 70.6853 55.008 71.624 55.776 72.904C56.544 74.0987 56.928 75.6773 56.928 77.64C56.928 81.48 55.7333 84.7653 53.344 87.496C51.04 90.2267 48.0107 92.2747 44.256 93.64C40.5867 95.0907 36.6613 95.816 32.48 95.816C20.8747 95.816 12.5973 91.8053 7.648 83.784C2.784 75.7627 0.352 64.8827 0.352 51.144C0.352 37.4907 2.95467 26.568 8.16 18.376C13.4507 10.0987 21.9413 5.96 33.632 5.96C41.1413 5.96 47.1147 7.45333 51.552 10.44C56.0747 13.4267 58.336 18.1627 58.336 24.648C58.336 27.72 57.44 30.2373 55.648 32.2C53.856 34.0773 51.424 35.016 48.352 35.016C45.3653 35.016 43.1467 34.3333 41.696 32.968C42.3787 31.0907 42.72 28.9573 42.72 26.568C42.72 18.8027 39.3067 14.92 32.48 14.92ZM77.116 0.839996C79.932 0.839996 82.1933 1.52266 83.9 2.88799C85.692 4.25333 86.588 6.216 86.588 8.77599C86.588 11.4213 85.6493 13.4693 83.772 14.92C81.98 16.2853 79.6333 16.968 76.732 16.968C73.916 16.968 71.6547 16.2853 69.948 14.92C68.2413 13.5547 67.388 11.592 67.388 9.032C67.388 6.38666 68.284 4.38133 70.076 3.016C71.9533 1.56533 74.3 0.839996 77.116 0.839996ZM83.772 82.504C83.772 86.6853 85.0947 89.5013 87.74 90.952C87.0573 92.232 85.948 93.2133 84.412 93.896C82.876 94.5787 81.212 94.92 79.42 94.92C76.1773 94.92 73.7453 93.9813 72.124 92.104C70.5027 90.2267 69.692 87.5813 69.692 84.168V27.72H83.772V82.504ZM93.39 33.48L93.262 29.64C97.102 28.104 100.729 26.056 104.142 23.496C107.641 20.936 110.585 18.12 112.974 15.048H116.942V27.72H128.718V33.48H116.686V80.072C116.686 82.632 117.155 84.552 118.094 85.832C119.033 87.112 120.526 87.9227 122.574 88.264C122.147 90.2267 120.995 91.8053 119.118 93C117.326 94.28 115.235 94.92 112.846 94.92C105.934 94.92 102.478 90.9947 102.478 83.144V33.48H93.39ZM172.386 87.112C170.765 90.0987 168.375 92.2747 165.218 93.64C162.146 95.0907 158.647 95.816 154.722 95.816C148.834 95.816 143.885 94.024 139.874 90.44C135.949 86.856 133.986 82.2053 133.986 76.488C133.986 62.664 146.317 55.752 170.978 55.752V44.616C170.978 40.3493 170.338 37.192 169.058 35.144C167.778 33.0107 165.346 31.944 161.762 31.944C158.775 31.944 156.301 32.7547 154.338 34.376C152.375 35.912 151.394 38.088 151.394 40.904C151.394 42.696 151.735 44.616 152.418 46.664C151.223 47.6027 149.517 48.072 147.298 48.072C144.226 48.072 141.794 47.304 140.002 45.768C138.21 44.232 137.314 42.0133 137.314 39.112C137.314 35.016 139.618 31.688 144.226 29.128C148.834 26.4827 154.978 25.16 162.658 25.16C168.29 25.16 172.727 26.0133 175.97 27.72C179.213 29.3413 181.517 31.9013 182.882 35.4C184.333 38.8133 185.058 43.4213 185.058 49.224V82.504C185.058 86.6853 186.381 89.5013 189.026 90.952C188.343 92.232 187.319 93.2133 185.954 93.896C184.674 94.5787 183.181 94.92 181.474 94.92C178.999 94.92 176.951 94.2373 175.33 92.872C173.709 91.4213 172.727 89.5013 172.386 87.112ZM159.714 87.24C163.469 87.24 166.285 85.832 168.162 83.016C170.039 80.1147 170.978 76.5307 170.978 72.264V62.152C156.557 62.152 149.346 66.76 149.346 75.976C149.346 79.3893 150.242 82.12 152.034 84.168C153.911 86.216 156.471 87.24 159.714 87.24ZM193.89 33.48L193.762 29.64C197.602 28.104 201.229 26.056 204.642 23.496C208.141 20.936 211.085 18.12 213.474 15.048H217.442V27.72H229.218V33.48H217.186V80.072C217.186 82.632 217.655 84.552 218.594 85.832C219.533 87.112 221.026 87.9227 223.074 88.264C222.647 90.2267 221.495 91.8053 219.618 93C217.826 94.28 215.735 94.92 213.346 94.92C206.434 94.92 202.978 90.9947 202.978 83.144V33.48H193.89ZM245.366 0.839996C248.182 0.839996 250.443 1.52266 252.15 2.88799C253.942 4.25333 254.838 6.216 254.838 8.77599C254.838 11.4213 253.899 13.4693 252.022 14.92C250.23 16.2853 247.883 16.968 244.982 16.968C242.166 16.968 239.905 16.2853 238.198 14.92C236.491 13.5547 235.638 11.592 235.638 9.032C235.638 6.38666 236.534 4.38133 238.326 3.016C240.203 1.56533 242.55 0.839996 245.366 0.839996ZM252.022 82.504C252.022 86.6853 253.345 89.5013 255.99 90.952C255.307 92.232 254.198 93.2133 252.662 93.896C251.126 94.5787 249.462 94.92 247.67 94.92C244.427 94.92 241.995 93.9813 240.374 92.104C238.753 90.2267 237.942 87.5813 237.942 84.168V27.72H252.022V82.504ZM293.128 25.16C302.685 25.16 309.768 28.2747 314.376 34.504C318.984 40.648 321.288 48.968 321.288 59.464C321.288 70.6427 319.069 79.5173 314.632 86.088C310.195 92.5733 303.027 95.816 293.128 95.816C283.4 95.816 276.275 92.7013 271.752 86.472C267.315 80.2427 265.096 71.6667 265.096 60.744C265.096 50.1627 267.4 41.5867 272.008 35.016C276.616 28.4453 283.656 25.16 293.128 25.16ZM293.128 88.136C298.419 88.136 301.875 85.5333 303.496 80.328C305.117 75.1227 305.928 68.3813 305.928 60.104C305.928 52.5093 305.032 46.0667 303.24 40.776C301.533 35.4853 298.163 32.84 293.128 32.84C284.68 32.84 280.456 41.928 280.456 60.104C280.456 68.3813 281.224 75.1227 282.76 80.328C284.381 85.5333 287.837 88.136 293.128 88.136ZM333.823 27.72L345.599 26.184L346.239 37.704C347.86 33.608 350.335 30.4933 353.663 28.36C357.076 26.2267 361.044 25.16 365.567 25.16C372.735 25.16 377.727 27.1653 380.543 31.176C383.359 35.1013 384.767 41.1173 384.767 49.224V82.504C384.767 86.6853 386.09 89.5013 388.735 90.952C388.052 92.232 386.943 93.2133 385.407 93.896C383.871 94.5787 382.25 94.92 380.543 94.92C377.215 94.92 374.74 93.9813 373.119 92.104C371.498 90.2267 370.687 87.5813 370.687 84.168V51.016C370.687 45.64 370.09 41.6293 368.895 38.984C367.7 36.3387 365.055 35.016 360.959 35.016C355.754 35.016 352.255 37.32 350.463 41.928C348.756 46.536 347.903 52.4667 347.903 59.72V93H333.823V27.72Z" fill="#EB5757"/>
</svg>
