<svg width="641" height="119" viewBox="0 0 641 119" fill="none" xmlns="http://www.w3.org/2000/svg">
<path d="M32.48 14.92C25.9947 14.92 21.6853 18.3333 19.552 25.16C17.504 31.9013 16.48 40.3493 16.48 50.504C16.48 60.6587 17.5893 68.808 19.808 74.952C22.0267 81.0107 26.6773 84.04 33.76 84.04C38.1973 84.04 41.9947 82.8027 45.152 80.328C48.3093 77.8533 50.5707 74.44 51.936 70.088C53.728 70.6853 55.008 71.624 55.776 72.904C56.544 74.0987 56.928 75.6773 56.928 77.64C56.928 81.48 55.7333 84.7653 53.344 87.496C51.04 90.2267 48.0107 92.2747 44.256 93.64C40.5867 95.0907 36.6613 95.816 32.48 95.816C20.8747 95.816 12.5973 91.8053 7.648 83.784C2.784 75.7627 0.352 64.8827 0.352 51.144C0.352 37.4907 2.95467 26.568 8.16 18.376C13.4507 10.0987 21.9413 5.96 33.632 5.96C41.1413 5.96 47.1147 7.45333 51.552 10.44C56.0747 13.4267 58.336 18.1627 58.336 24.648C58.336 27.72 57.44 30.2373 55.648 32.2C53.856 34.0773 51.424 35.016 48.352 35.016C45.3653 35.016 43.1467 34.3333 41.696 32.968C42.3787 31.0907 42.72 28.9573 42.72 26.568C42.72 18.8027 39.3067 14.92 32.48 14.92ZM93.628 25.16C103.185 25.16 110.268 28.2747 114.876 34.504C119.484 40.648 121.788 48.968 121.788 59.464C121.788 70.6427 119.569 79.5173 115.132 86.088C110.695 92.5733 103.527 95.816 93.628 95.816C83.9 95.816 76.7747 92.7013 72.252 86.472C67.8147 80.2427 65.596 71.6667 65.596 60.744C65.596 50.1627 67.9 41.5867 72.508 35.016C77.116 28.4453 84.156 25.16 93.628 25.16ZM93.628 88.136C98.9187 88.136 102.375 85.5333 103.996 80.328C105.617 75.1227 106.428 68.3813 106.428 60.104C106.428 52.5093 105.532 46.0667 103.74 40.776C102.033 35.4853 98.6627 32.84 93.628 32.84C85.18 32.84 80.956 41.928 80.956 60.104C80.956 68.3813 81.724 75.1227 83.26 80.328C84.8813 85.5333 88.3373 88.136 93.628 88.136ZM134.323 27.72L146.099 26.184L146.739 37.704C148.36 33.608 150.835 30.4933 154.163 28.36C157.576 26.2267 161.544 25.16 166.067 25.16C173.235 25.16 178.227 27.1653 181.043 31.176C183.859 35.1013 185.267 41.1173 185.267 49.224V82.504C185.267 86.6853 186.59 89.5013 189.235 90.952C188.552 92.232 187.443 93.2133 185.907 93.896C184.371 94.5787 182.75 94.92 181.043 94.92C177.715 94.92 175.24 93.9813 173.619 92.104C171.998 90.2267 171.187 87.5813 171.187 84.168V51.016C171.187 45.64 170.59 41.6293 169.395 38.984C168.2 36.3387 165.555 35.016 161.459 35.016C156.254 35.016 152.755 37.32 150.963 41.928C149.256 46.536 148.403 52.4667 148.403 59.72V93H134.323V27.72ZM194.14 33.48L194.012 29.64C197.852 28.104 201.479 26.056 204.892 23.496C208.391 20.936 211.335 18.12 213.724 15.048H217.692V27.72H229.468V33.48H217.436V80.072C217.436 82.632 217.905 84.552 218.844 85.832C219.783 87.112 221.276 87.9227 223.324 88.264C222.897 90.2267 221.745 91.8053 219.868 93C218.076 94.28 215.985 94.92 213.596 94.92C206.684 94.92 203.228 90.9947 203.228 83.144V33.48H194.14ZM261.232 35.016C257.563 35.016 255.173 37.4907 254.064 42.44C253.04 47.304 252.528 53.1493 252.528 59.976V93H238.448V27.72L250.224 26.184L250.864 37.704C252.059 33.864 254.149 30.8347 257.136 28.616C260.123 26.312 263.579 25.16 267.504 25.16C271.771 25.16 275.141 26.3973 277.616 28.872C280.176 31.3467 281.456 34.7173 281.456 38.984C281.456 45.896 278.128 49.352 271.472 49.352C269.253 49.352 267.547 48.8827 266.352 47.944C266.949 45.7253 267.248 43.8053 267.248 42.184C267.248 37.4053 265.243 35.016 261.232 35.016ZM296.116 0.839996C298.932 0.839996 301.193 1.52266 302.9 2.88799C304.692 4.25333 305.588 6.216 305.588 8.77599C305.588 11.4213 304.649 13.4693 302.772 14.92C300.98 16.2853 298.633 16.968 295.732 16.968C292.916 16.968 290.655 16.2853 288.948 14.92C287.241 13.5547 286.388 11.592 286.388 9.032C286.388 6.38666 287.284 4.38133 289.076 3.016C290.953 1.56533 293.3 0.839996 296.116 0.839996ZM302.772 82.504C302.772 86.6853 304.095 89.5013 306.74 90.952C306.057 92.232 304.948 93.2133 303.412 93.896C301.876 94.5787 300.212 94.92 298.42 94.92C295.177 94.92 292.745 93.9813 291.124 92.104C289.503 90.2267 288.692 87.5813 288.692 84.168V27.72H302.772V82.504ZM334.79 16.328C334.79 25.6293 334.363 32.456 333.51 36.808C335.131 33.224 337.563 30.408 340.806 28.36C344.049 26.2267 347.633 25.16 351.558 25.16C359.665 25.16 365.553 28.4027 369.222 34.888C372.891 41.3733 374.726 49.5653 374.726 59.464C374.726 70.3867 372.379 79.176 367.686 85.832C362.993 92.488 355.782 95.816 346.054 95.816C341.873 95.816 337.435 95.2613 332.742 94.152C328.134 93.128 324.123 91.6773 320.71 89.8V3.39999L334.79 1.864V16.328ZM334.79 84.296C338.545 86.856 342.513 88.136 346.694 88.136C351.899 88.136 355.313 85.4907 356.934 80.2C358.555 74.9093 359.366 68.2107 359.366 60.104C359.366 52.8507 358.555 46.8773 356.934 42.184C355.398 37.4053 352.198 35.016 347.334 35.016C342.385 35.016 339.057 37.3627 337.35 42.056C335.643 46.664 334.79 52.552 334.79 59.72V84.296ZM438.011 82.504C438.011 86.6853 439.334 89.5013 441.979 90.952C441.296 92.232 440.272 93.2133 438.907 93.896C437.627 94.5787 436.134 94.92 434.427 94.92C431.952 94.92 429.904 94.2373 428.283 92.872C426.662 91.4213 425.68 89.5013 425.339 87.112C423.974 89.928 421.755 92.0613 418.683 93.512C415.696 95.048 412.454 95.816 408.955 95.816C402.811 95.816 398.118 94.4933 394.875 91.848C391.718 89.1173 389.627 85.448 388.603 80.84C387.579 76.1467 387.067 70.1307 387.067 62.792V27.72H401.147V62.152C401.147 67.3573 401.318 71.6667 401.659 75.08C402.086 78.408 403.152 81.2667 404.859 83.656C406.566 86.0453 409.168 87.24 412.667 87.24C416.422 87.24 419.238 85.832 421.115 83.016C422.992 80.1147 423.931 76.5307 423.931 72.264V27.72H438.011V82.504ZM447.64 33.48L447.512 29.64C451.352 28.104 454.979 26.056 458.392 23.496C461.891 20.936 464.835 18.12 467.224 15.048H471.192V27.72H482.968V33.48H470.936V80.072C470.936 82.632 471.405 84.552 472.344 85.832C473.283 87.112 474.776 87.9227 476.824 88.264C476.397 90.2267 475.245 91.8053 473.368 93C471.576 94.28 469.485 94.92 467.096 94.92C460.184 94.92 456.728 90.9947 456.728 83.144V33.48H447.64ZM499.116 0.839996C501.932 0.839996 504.193 1.52266 505.9 2.88799C507.692 4.25333 508.588 6.216 508.588 8.77599C508.588 11.4213 507.649 13.4693 505.772 14.92C503.98 16.2853 501.633 16.968 498.732 16.968C495.916 16.968 493.655 16.2853 491.948 14.92C490.241 13.5547 489.388 11.592 489.388 9.032C489.388 6.38666 490.284 4.38133 492.076 3.016C493.953 1.56533 496.3 0.839996 499.116 0.839996ZM505.772 82.504C505.772 86.6853 507.095 89.5013 509.74 90.952C509.057 92.232 507.948 93.2133 506.412 93.896C504.876 94.5787 503.212 94.92 501.42 94.92C498.177 94.92 495.745 93.9813 494.124 92.104C492.503 90.2267 491.692 87.5813 491.692 84.168V27.72H505.772V82.504ZM523.198 27.72L534.974 26.184L535.614 37.704C537.235 33.608 539.71 30.4933 543.038 28.36C546.451 26.2267 550.419 25.16 554.942 25.16C562.11 25.16 567.102 27.1653 569.918 31.176C572.734 35.1013 574.142 41.1173 574.142 49.224V82.504C574.142 86.6853 575.465 89.5013 578.11 90.952C577.427 92.232 576.318 93.2133 574.782 93.896C573.246 94.5787 571.625 94.92 569.918 94.92C566.59 94.92 564.115 93.9813 562.494 92.104C560.873 90.2267 560.062 87.5813 560.062 84.168V51.016C560.062 45.64 559.465 41.6293 558.27 38.984C557.075 36.3387 554.43 35.016 550.334 35.016C545.129 35.016 541.63 37.32 539.838 41.928C538.131 46.536 537.278 52.4667 537.278 59.72V93H523.198V27.72ZM613.991 111.048C617.916 111.048 620.818 109.683 622.695 106.952C624.572 104.307 625.724 101.107 626.151 97.352C626.578 93.5973 626.791 88.8613 626.791 83.144V79.688C625.17 82.0773 622.951 83.8693 620.135 85.064C617.319 86.2587 614.332 86.856 611.175 86.856C602.812 86.856 596.668 84.04 592.743 78.408C588.903 72.776 586.983 65.224 586.983 55.752C586.983 46.1093 589.33 38.6 594.023 33.224C598.716 27.848 605.671 25.16 614.887 25.16C619.154 25.16 623.463 25.9707 627.815 27.592L640.359 26.184V80.072C640.359 88.3493 639.591 95.2613 638.055 100.808C636.604 106.355 633.831 110.707 629.735 113.864C625.724 117.021 620.092 118.6 612.839 118.6C606.78 118.6 601.575 117.405 597.223 115.016C592.956 112.627 590.823 108.957 590.823 104.008C590.823 101.107 591.719 98.888 593.511 97.352C595.303 95.816 597.735 95.048 600.807 95.048C603.026 95.048 604.732 95.5173 605.927 96.456C605.33 98.248 605.031 100.168 605.031 102.216C605.031 108.104 608.018 111.048 613.991 111.048ZM626.279 36.936C622.268 34.2053 618.3 32.84 614.375 32.84C609.682 32.84 606.439 34.9307 604.647 39.112C602.94 43.2933 602.087 48.6267 602.087 55.112C602.087 62.024 602.94 67.6133 604.647 71.88C606.439 76.1467 609.852 78.28 614.887 78.28C618.727 78.28 621.586 76.872 623.463 74.056C625.34 71.24 626.279 67.656 626.279 63.304V36.936Z" fill="#EB5757"/>
</svg>
