<svg width="751" height="119" viewBox="0 0 751 119" fill="none" xmlns="http://www.w3.org/2000/svg">
<path d="M33.888 14.92C27.0613 14.92 22.4533 18.3333 20.064 25.16C17.6747 31.9013 16.48 40.3493 16.48 50.504C16.48 60.9147 17.6747 69.4053 20.064 75.976C22.4533 82.5467 27.2747 85.832 34.528 85.832C38.5387 85.832 42.208 85.2773 45.536 84.168L45.024 54.216L58.976 52.424V90.568C55.904 92.1893 51.9787 93.4693 47.2 94.408C42.4213 95.3467 38.0693 95.816 34.144 95.816C22.0267 95.816 13.3653 91.8907 8.16 84.04C2.95467 76.104 0.352 65.1387 0.352 51.144C0.352 37.32 3.08267 26.3547 8.544 18.248C14.0907 10.056 22.9227 5.96 35.04 5.96C42.6347 5.96 48.7787 7.45333 53.472 10.44C58.1653 13.4267 60.512 18.1627 60.512 24.648C60.512 27.72 59.616 30.2373 57.824 32.2C56.032 34.0773 53.6 35.016 50.528 35.016C47.712 35.016 45.4933 34.3333 43.872 32.968C44.5547 31.0907 44.896 28.9573 44.896 26.568C44.896 22.8987 43.9573 20.04 42.08 17.992C40.2027 15.944 37.472 14.92 33.888 14.92ZM115.539 74.952C117.502 75.8907 118.483 77.7253 118.483 80.456C118.483 83.528 117.459 86.2587 115.411 88.648C113.363 90.952 110.718 92.7013 107.475 93.896C104.232 95.176 100.947 95.816 97.619 95.816C88.2323 95.816 81.2777 92.7867 76.755 86.728C72.2323 80.584 69.971 72.3493 69.971 62.024C69.971 51.016 72.403 42.1413 77.267 35.4C82.2163 28.5733 89.683 25.16 99.667 25.16C105.982 25.16 111.059 26.824 114.899 30.152C118.739 33.3947 120.659 38.0027 120.659 43.976C120.659 51.4 118.056 56.6053 112.851 59.592C107.731 62.5787 100.734 64.072 91.859 64.072C89.3843 64.072 87.0377 63.9867 84.819 63.816C85.075 70.5573 86.1843 75.9333 88.147 79.944C90.195 83.9547 93.779 85.96 98.899 85.96C102.654 85.96 105.939 85.0213 108.755 83.144C111.656 81.1813 113.918 78.4507 115.539 74.952ZM97.619 32.456C93.011 32.456 89.7683 34.888 87.891 39.752C86.0137 44.5307 84.9897 50.4187 84.819 57.416C87.379 57.5867 89.2563 57.672 90.451 57.672C101.203 57.672 106.579 53.3627 106.579 44.744C106.579 41.2453 105.811 38.344 104.275 36.04C102.824 33.6507 100.606 32.456 97.619 32.456ZM125.14 33.48L125.012 29.64C128.852 28.104 132.479 26.056 135.892 23.496C139.391 20.936 142.335 18.12 144.724 15.048H148.692V27.72H160.468V33.48H148.436V80.072C148.436 82.632 148.905 84.552 149.844 85.832C150.783 87.112 152.276 87.9227 154.324 88.264C153.897 90.2267 152.745 91.8053 150.868 93C149.076 94.28 146.985 94.92 144.596 94.92C137.684 94.92 134.228 90.9947 134.228 83.144V33.48H125.14ZM161.64 33.48L161.512 29.64C165.352 28.104 168.979 26.056 172.392 23.496C175.891 20.936 178.835 18.12 181.224 15.048H185.192V27.72H196.968V33.48H184.936V80.072C184.936 82.632 185.405 84.552 186.344 85.832C187.283 87.112 188.776 87.9227 190.824 88.264C190.397 90.2267 189.245 91.8053 187.368 93C185.576 94.28 183.485 94.92 181.096 94.92C174.184 94.92 170.728 90.9947 170.728 83.144V33.48H161.64ZM213.116 0.839996C215.932 0.839996 218.193 1.52266 219.9 2.88799C221.692 4.25333 222.588 6.216 222.588 8.77599C222.588 11.4213 221.649 13.4693 219.772 14.92C217.98 16.2853 215.633 16.968 212.732 16.968C209.916 16.968 207.655 16.2853 205.948 14.92C204.241 13.5547 203.388 11.592 203.388 9.032C203.388 6.38666 204.284 4.38133 206.076 3.016C207.953 1.56533 210.3 0.839996 213.116 0.839996ZM219.772 82.504C219.772 86.6853 221.095 89.5013 223.74 90.952C223.057 92.232 221.948 93.2133 220.412 93.896C218.876 94.5787 217.212 94.92 215.42 94.92C212.177 94.92 209.745 93.9813 208.124 92.104C206.503 90.2267 205.692 87.5813 205.692 84.168V27.72H219.772V82.504ZM237.198 27.72L248.974 26.184L249.614 37.704C251.235 33.608 253.71 30.4933 257.038 28.36C260.451 26.2267 264.419 25.16 268.942 25.16C276.11 25.16 281.102 27.1653 283.918 31.176C286.734 35.1013 288.142 41.1173 288.142 49.224V82.504C288.142 86.6853 289.465 89.5013 292.11 90.952C291.427 92.232 290.318 93.2133 288.782 93.896C287.246 94.5787 285.625 94.92 283.918 94.92C280.59 94.92 278.115 93.9813 276.494 92.104C274.873 90.2267 274.062 87.5813 274.062 84.168V51.016C274.062 45.64 273.465 41.6293 272.27 38.984C271.075 36.3387 268.43 35.016 264.334 35.016C259.129 35.016 255.63 37.32 253.838 41.928C252.131 46.536 251.278 52.4667 251.278 59.72V93H237.198V27.72ZM327.991 111.048C331.916 111.048 334.818 109.683 336.695 106.952C338.572 104.307 339.724 101.107 340.151 97.352C340.578 93.5973 340.791 88.8613 340.791 83.144V79.688C339.17 82.0773 336.951 83.8693 334.135 85.064C331.319 86.2587 328.332 86.856 325.175 86.856C316.812 86.856 310.668 84.04 306.743 78.408C302.903 72.776 300.983 65.224 300.983 55.752C300.983 46.1093 303.33 38.6 308.023 33.224C312.716 27.848 319.671 25.16 328.887 25.16C333.154 25.16 337.463 25.9707 341.815 27.592L354.359 26.184V80.072C354.359 88.3493 353.591 95.2613 352.055 100.808C350.604 106.355 347.831 110.707 343.735 113.864C339.724 117.021 334.092 118.6 326.839 118.6C320.78 118.6 315.575 117.405 311.223 115.016C306.956 112.627 304.823 108.957 304.823 104.008C304.823 101.107 305.719 98.888 307.511 97.352C309.303 95.816 311.735 95.048 314.807 95.048C317.026 95.048 318.732 95.5173 319.927 96.456C319.33 98.248 319.031 100.168 319.031 102.216C319.031 108.104 322.018 111.048 327.991 111.048ZM340.279 36.936C336.268 34.2053 332.3 32.84 328.375 32.84C323.682 32.84 320.439 34.9307 318.647 39.112C316.94 43.2933 316.087 48.6267 316.087 55.112C316.087 62.024 316.94 67.6133 318.647 71.88C320.439 76.1467 323.852 78.28 328.887 78.28C332.727 78.28 335.586 76.872 337.463 74.056C339.34 71.24 340.279 67.656 340.279 63.304V36.936ZM414.309 31.944C411.749 31.944 409.701 32.6267 408.165 33.992C406.629 35.272 405.861 37.1493 405.861 39.624C405.861 42.952 406.97 45.6827 409.189 47.816C411.493 49.864 414.992 52.168 419.685 54.728C423.44 56.776 426.426 58.6107 428.645 60.232C430.949 61.8533 432.912 63.944 434.533 66.504C436.154 68.9787 436.965 72.008 436.965 75.592C436.965 82.0773 434.618 87.0693 429.925 90.568C425.317 94.0667 419.429 95.816 412.261 95.816C406.032 95.816 400.784 94.7493 396.517 92.616C392.336 90.4827 390.245 86.9413 390.245 81.992C390.245 79.0907 391.141 76.872 392.933 75.336C394.725 73.8 397.157 73.032 400.229 73.032C402.448 73.032 404.154 73.5013 405.349 74.44C404.666 76.488 404.325 78.408 404.325 80.2C404.325 82.9307 405.178 85.1067 406.885 86.728C408.592 88.264 410.896 89.032 413.797 89.032C416.954 89.032 419.344 88.2213 420.965 86.6C422.672 84.8933 423.525 82.4187 423.525 79.176C423.525 75.848 422.373 73.16 420.069 71.112C417.85 68.9787 414.394 66.632 409.701 64.072C405.946 61.9387 402.917 60.0613 400.613 58.44C398.394 56.8187 396.474 54.7707 394.853 52.296C393.232 49.736 392.421 46.664 392.421 43.08C392.421 37.3627 394.725 32.968 399.333 29.896C403.941 26.7387 409.53 25.16 416.101 25.16C422.16 25.16 427.109 26.2693 430.949 28.488C434.874 30.6213 436.837 34.1627 436.837 39.112C436.837 42.0133 435.898 44.232 434.021 45.768C432.229 47.304 429.797 48.072 426.725 48.072C424.506 48.072 422.8 47.6027 421.605 46.664C422.288 44.616 422.629 42.696 422.629 40.904C422.629 38.088 421.904 35.912 420.453 34.376C419.088 32.7547 417.04 31.944 414.309 31.944ZM442.64 33.48L442.512 29.64C446.352 28.104 449.979 26.056 453.392 23.496C456.891 20.936 459.835 18.12 462.224 15.048H466.192V27.72H477.968V33.48H465.936V80.072C465.936 82.632 466.405 84.552 467.344 85.832C468.283 87.112 469.776 87.9227 471.824 88.264C471.397 90.2267 470.245 91.8053 468.368 93C466.576 94.28 464.485 94.92 462.096 94.92C455.184 94.92 451.728 90.9947 451.728 83.144V33.48H442.64ZM521.636 87.112C520.015 90.0987 517.625 92.2747 514.468 93.64C511.396 95.0907 507.897 95.816 503.972 95.816C498.084 95.816 493.135 94.024 489.124 90.44C485.199 86.856 483.236 82.2053 483.236 76.488C483.236 62.664 495.567 55.752 520.228 55.752V44.616C520.228 40.3493 519.588 37.192 518.308 35.144C517.028 33.0107 514.596 31.944 511.012 31.944C508.025 31.944 505.551 32.7547 503.588 34.376C501.625 35.912 500.644 38.088 500.644 40.904C500.644 42.696 500.985 44.616 501.668 46.664C500.473 47.6027 498.767 48.072 496.548 48.072C493.476 48.072 491.044 47.304 489.252 45.768C487.46 44.232 486.564 42.0133 486.564 39.112C486.564 35.016 488.868 31.688 493.476 29.128C498.084 26.4827 504.228 25.16 511.908 25.16C517.54 25.16 521.977 26.0133 525.22 27.72C528.463 29.3413 530.767 31.9013 532.132 35.4C533.583 38.8133 534.308 43.4213 534.308 49.224V82.504C534.308 86.6853 535.631 89.5013 538.276 90.952C537.593 92.232 536.569 93.2133 535.204 93.896C533.924 94.5787 532.431 94.92 530.724 94.92C528.249 94.92 526.201 94.2373 524.58 92.872C522.959 91.4213 521.977 89.5013 521.636 87.112ZM508.964 87.24C512.719 87.24 515.535 85.832 517.412 83.016C519.289 80.1147 520.228 76.5307 520.228 72.264V62.152C505.807 62.152 498.596 66.76 498.596 75.976C498.596 79.3893 499.492 82.12 501.284 84.168C503.161 86.216 505.721 87.24 508.964 87.24ZM573.732 35.016C570.063 35.016 567.673 37.4907 566.564 42.44C565.54 47.304 565.028 53.1493 565.028 59.976V93H550.948V27.72L562.724 26.184L563.364 37.704C564.559 33.864 566.649 30.8347 569.636 28.616C572.623 26.312 576.079 25.16 580.004 25.16C584.271 25.16 587.641 26.3973 590.116 28.872C592.676 31.3467 593.956 34.7173 593.956 38.984C593.956 45.896 590.628 49.352 583.972 49.352C581.753 49.352 580.047 48.8827 578.852 47.944C579.449 45.7253 579.748 43.8053 579.748 42.184C579.748 37.4053 577.743 35.016 573.732 35.016ZM593.64 33.48L593.512 29.64C597.352 28.104 600.979 26.056 604.392 23.496C607.891 20.936 610.835 18.12 613.224 15.048H617.192V27.72H628.968V33.48H616.936V80.072C616.936 82.632 617.405 84.552 618.344 85.832C619.283 87.112 620.776 87.9227 622.824 88.264C622.397 90.2267 621.245 91.8053 619.368 93C617.576 94.28 615.485 94.92 613.096 94.92C606.184 94.92 602.728 90.9947 602.728 83.144V33.48H593.64ZM679.164 74.952C681.127 75.8907 682.108 77.7253 682.108 80.456C682.108 83.528 681.084 86.2587 679.036 88.648C676.988 90.952 674.343 92.7013 671.1 93.896C667.857 95.176 664.572 95.816 661.244 95.816C651.857 95.816 644.903 92.7867 640.38 86.728C635.857 80.584 633.596 72.3493 633.596 62.024C633.596 51.016 636.028 42.1413 640.892 35.4C645.841 28.5733 653.308 25.16 663.292 25.16C669.607 25.16 674.684 26.824 678.524 30.152C682.364 33.3947 684.284 38.0027 684.284 43.976C684.284 51.4 681.681 56.6053 676.476 59.592C671.356 62.5787 664.359 64.072 655.484 64.072C653.009 64.072 650.663 63.9867 648.444 63.816C648.7 70.5573 649.809 75.9333 651.772 79.944C653.82 83.9547 657.404 85.96 662.524 85.96C666.279 85.96 669.564 85.0213 672.38 83.144C675.281 81.1813 677.543 78.4507 679.164 74.952ZM661.244 32.456C656.636 32.456 653.393 34.888 651.516 39.752C649.639 44.5307 648.615 50.4187 648.444 57.416C651.004 57.5867 652.881 57.672 654.076 57.672C664.828 57.672 670.204 53.3627 670.204 44.744C670.204 41.2453 669.436 38.344 667.9 36.04C666.449 33.6507 664.231 32.456 661.244 32.456ZM746.109 82.504C746.109 86.6853 747.432 89.5013 750.077 90.952C749.394 92.232 748.37 93.2133 747.005 93.896C745.725 94.5787 744.232 94.92 742.525 94.92C740.05 94.92 738.002 94.2373 736.381 92.872C734.76 91.4213 733.778 89.5013 733.437 87.112C732.072 89.928 729.853 92.0613 726.781 93.512C723.794 95.048 720.552 95.816 717.053 95.816C708.349 95.816 702.034 92.488 698.109 85.832C694.184 79.176 692.221 70.6427 692.221 60.232C692.221 49.48 694.525 40.9467 699.133 34.632C703.826 28.3173 711.08 25.16 720.893 25.16C724.989 25.16 728.701 25.7147 732.029 26.824V3.39999L746.109 1.864V82.504ZM732.029 36.808C728.104 34.1627 724.178 32.84 720.253 32.84C715.048 32.84 711.634 35.3147 710.013 40.264C708.392 45.2133 707.581 51.656 707.581 59.592C707.581 67.1867 708.52 73.7147 710.397 79.176C712.274 84.552 715.73 87.24 720.765 87.24C724.52 87.24 727.336 85.832 729.213 83.016C731.09 80.1147 732.029 76.5307 732.029 72.264V36.808Z" fill="#EB5757"/>
</svg>
