<svg width="371" height="96" viewBox="0 0 371 96" fill="none" xmlns="http://www.w3.org/2000/svg">
<path d="M0.68 8.52H15.656V83.528H43.56L42.664 93H0.68V8.52ZM59.866 0.839996C62.682 0.839996 64.9433 1.52266 66.65 2.88799C68.442 4.25333 69.338 6.216 69.338 8.77599C69.338 11.4213 68.3993 13.4693 66.522 14.92C64.73 16.2853 62.3833 16.968 59.482 16.968C56.666 16.968 54.4047 16.2853 52.698 14.92C50.9913 13.5547 50.138 11.592 50.138 9.032C50.138 6.38666 51.034 4.38133 52.826 3.016C54.7033 1.56533 57.05 0.839996 59.866 0.839996ZM66.522 82.504C66.522 86.6853 67.8447 89.5013 70.49 90.952C69.8073 92.232 68.698 93.2133 67.162 93.896C65.626 94.5787 63.962 94.92 62.17 94.92C58.9273 94.92 56.4953 93.9813 54.874 92.104C53.2527 90.2267 52.442 87.5813 52.442 84.168V27.72H66.522V82.504ZM107.244 32.712C98.7107 32.712 94.444 42.0133 94.444 60.616C94.444 68.2107 95.3827 74.3547 97.26 79.048C99.2227 83.656 102.977 85.96 108.524 85.96C112.279 85.96 115.479 84.9787 118.124 83.016C120.855 80.968 122.689 78.1093 123.628 74.44C125.079 75.1227 126.103 75.9333 126.7 76.872C127.383 77.7253 127.724 78.92 127.724 80.456C127.724 83.528 126.7 86.2587 124.652 88.648C122.689 90.952 120.129 92.7013 116.972 93.896C113.815 95.176 110.572 95.816 107.244 95.816C97.8573 95.816 90.9027 92.7867 86.38 86.728C81.8573 80.584 79.596 72.3493 79.596 62.024C79.596 51.016 82.028 42.1413 86.892 35.4C91.8413 28.5733 99.2653 25.16 109.164 25.16C114.967 25.16 119.745 26.3547 123.5 28.744C127.255 31.1333 129.132 34.8027 129.132 39.752C129.132 42.6533 128.236 44.872 126.444 46.408C124.652 47.944 122.22 48.712 119.148 48.712C118.209 48.712 117.228 48.584 116.204 48.328C115.265 48.072 114.497 47.7307 113.9 47.304C114.583 45.256 114.924 43.336 114.924 41.544C114.924 35.656 112.364 32.712 107.244 32.712ZM182.289 74.952C184.252 75.8907 185.233 77.7253 185.233 80.456C185.233 83.528 184.209 86.2587 182.161 88.648C180.113 90.952 177.468 92.7013 174.225 93.896C170.982 95.176 167.697 95.816 164.369 95.816C154.982 95.816 148.028 92.7867 143.505 86.728C138.982 80.584 136.721 72.3493 136.721 62.024C136.721 51.016 139.153 42.1413 144.017 35.4C148.966 28.5733 156.433 25.16 166.417 25.16C172.732 25.16 177.809 26.824 181.649 30.152C185.489 33.3947 187.409 38.0027 187.409 43.976C187.409 51.4 184.806 56.6053 179.601 59.592C174.481 62.5787 167.484 64.072 158.609 64.072C156.134 64.072 153.788 63.9867 151.569 63.816C151.825 70.5573 152.934 75.9333 154.897 79.944C156.945 83.9547 160.529 85.96 165.649 85.96C169.404 85.96 172.689 85.0213 175.505 83.144C178.406 81.1813 180.668 78.4507 182.289 74.952ZM164.369 32.456C159.761 32.456 156.518 34.888 154.641 39.752C152.764 44.5307 151.74 50.4187 151.569 57.416C154.129 57.5867 156.006 57.672 157.201 57.672C167.953 57.672 173.329 53.3627 173.329 44.744C173.329 41.2453 172.561 38.344 171.025 36.04C169.574 33.6507 167.356 32.456 164.369 32.456ZM199.698 27.72L211.474 26.184L212.114 37.704C213.735 33.608 216.21 30.4933 219.538 28.36C222.951 26.2267 226.919 25.16 231.442 25.16C238.61 25.16 243.602 27.1653 246.418 31.176C249.234 35.1013 250.642 41.1173 250.642 49.224V82.504C250.642 86.6853 251.965 89.5013 254.61 90.952C253.927 92.232 252.818 93.2133 251.282 93.896C249.746 94.5787 248.125 94.92 246.418 94.92C243.09 94.92 240.615 93.9813 238.994 92.104C237.373 90.2267 236.562 87.5813 236.562 84.168V51.016C236.562 45.64 235.965 41.6293 234.77 38.984C233.575 36.3387 230.93 35.016 226.834 35.016C221.629 35.016 218.13 37.32 216.338 41.928C214.631 46.536 213.778 52.4667 213.778 59.72V93H199.698V27.72ZM288.059 31.944C285.499 31.944 283.451 32.6267 281.915 33.992C280.379 35.272 279.611 37.1493 279.611 39.624C279.611 42.952 280.72 45.6827 282.939 47.816C285.243 49.864 288.742 52.168 293.435 54.728C297.19 56.776 300.176 58.6107 302.395 60.232C304.699 61.8533 306.662 63.944 308.283 66.504C309.904 68.9787 310.715 72.008 310.715 75.592C310.715 82.0773 308.368 87.0693 303.675 90.568C299.067 94.0667 293.179 95.816 286.011 95.816C279.782 95.816 274.534 94.7493 270.267 92.616C266.086 90.4827 263.995 86.9413 263.995 81.992C263.995 79.0907 264.891 76.872 266.683 75.336C268.475 73.8 270.907 73.032 273.979 73.032C276.198 73.032 277.904 73.5013 279.099 74.44C278.416 76.488 278.075 78.408 278.075 80.2C278.075 82.9307 278.928 85.1067 280.635 86.728C282.342 88.264 284.646 89.032 287.547 89.032C290.704 89.032 293.094 88.2213 294.715 86.6C296.422 84.8933 297.275 82.4187 297.275 79.176C297.275 75.848 296.123 73.16 293.819 71.112C291.6 68.9787 288.144 66.632 283.451 64.072C279.696 61.9387 276.667 60.0613 274.363 58.44C272.144 56.8187 270.224 54.7707 268.603 52.296C266.982 49.736 266.171 46.664 266.171 43.08C266.171 37.3627 268.475 32.968 273.083 29.896C277.691 26.7387 283.28 25.16 289.851 25.16C295.91 25.16 300.859 26.2693 304.699 28.488C308.624 30.6213 310.587 34.1627 310.587 39.112C310.587 42.0133 309.648 44.232 307.771 45.768C305.979 47.304 303.547 48.072 300.475 48.072C298.256 48.072 296.55 47.6027 295.355 46.664C296.038 44.616 296.379 42.696 296.379 40.904C296.379 38.088 295.654 35.912 294.203 34.376C292.838 32.7547 290.79 31.944 288.059 31.944ZM365.414 74.952C367.377 75.8907 368.358 77.7253 368.358 80.456C368.358 83.528 367.334 86.2587 365.286 88.648C363.238 90.952 360.593 92.7013 357.35 93.896C354.107 95.176 350.822 95.816 347.494 95.816C338.107 95.816 331.153 92.7867 326.63 86.728C322.107 80.584 319.846 72.3493 319.846 62.024C319.846 51.016 322.278 42.1413 327.142 35.4C332.091 28.5733 339.558 25.16 349.542 25.16C355.857 25.16 360.934 26.824 364.774 30.152C368.614 33.3947 370.534 38.0027 370.534 43.976C370.534 51.4 367.931 56.6053 362.726 59.592C357.606 62.5787 350.609 64.072 341.734 64.072C339.259 64.072 336.913 63.9867 334.694 63.816C334.95 70.5573 336.059 75.9333 338.022 79.944C340.07 83.9547 343.654 85.96 348.774 85.96C352.529 85.96 355.814 85.0213 358.63 83.144C361.531 81.1813 363.793 78.4507 365.414 74.952ZM347.494 32.456C342.886 32.456 339.643 34.888 337.766 39.752C335.889 44.5307 334.865 50.4187 334.694 57.416C337.254 57.5867 339.131 57.672 340.326 57.672C351.078 57.672 356.454 53.3627 356.454 44.744C356.454 41.2453 355.686 38.344 354.15 36.04C352.699 33.6507 350.481 32.456 347.494 32.456Z" fill="#EB5757"/>
</svg>
